{"title":"The.Quiet.Earth.1985.DVDRiP.XViD.OPTIONAL.NORDIC-Zen_Bud","uid":5851362,"size":748495074,"categoryP":"video","categoryS":"movies","magnet":"?xt=urn:btih:850e2b2ae9645a88c0493ea111b8d230b1fc8020&amp;dn=The.Quiet.Earth.1985.DVDRiP.XViD.OPTIONAL.NORDIC-Zen_Bud&amp;tr=udp%3A%2F%2Ftracker.openbittorrent.com%3A80&amp;tr=udp%3A%2F%2Fopen.demonii.com%3A1337&amp;tr=udp%3A%2F%2Ftracker.coppersurfer.tk%3A6969&amp;tr=udp%3A%2F%2Fexodus.desync.com%3A6969","seeders":0,"leechers":0,"uploader":"Zen_Bud","files":-1,"time":1285400346,"description":"\nComplete name                    : The.Quiet.Earth.1985.avi\nFormat                           : AVI\nFile size                        : 706 MiB\nDuration                         : 1h 30mn\nOverall bit rate                 : 1 087 Kbps\n\nVideo\n\nFormat                           : MPEG-4 Visual\nCodec ID/Hint                    : XviD\nDuration                         : 1h 30mn\nBit rate                         : 946 Kbps\nWidth                            : 720 pixels\nHeight                           : 460 pixels\nDisplay aspect ratio             : 1.855\nStream size                      : 615 MiB (87%)\nWriting library                  : XviD 1.1.2 (UTC 2006-11-01)\n\nAudio\n\nFormat                           : MPEG Audio\nCodec ID/Hint                    : MP3\nDuration                         : 1h 30mn\nBit rate                         : 128 Kbps\nChannel(s)                       : 2 channels\nSampling rate                    : 48.0 KHz\nStream size                      : 83.2 MiB (12%)\n\nText #1\nLanguage                         : Swedish\n\nText #2\nLanguage                         : Danish\n\nText #3\nLanguage                         : Norwegian\n\nText #4\nLanguage                         : Finnish","torrent":{"xt":"urn:btih:850e2b2ae9645a88c0493ea111b8d230b1fc8020","amp;dn":"The.Quiet.Earth.1985.DVDRiP.XViD.OPTIONAL.NORDIC-Zen_Bud","amp;tr":["udp%3A%2F%2Ftracker.openbittorrent.com%3A80","udp%3A%2F%2Fopen.demonii.com%3A1337","udp%3A%2F%2Ftracker.coppersurfer.tk%3A6969","udp%3A%2F%2Fexodus.desync.com%3A6969"],"infoHash":"850e2b2ae9645a88c0493ea111b8d230b1fc8020","infoHashBuffer":{"type":"Buffer","data":[133,14,43,42,233,100,90,136,192,73,62,161,17,184,210,48,177,252,128,32]},"announce":[],"urlList":[]}}